# xmcd
#
# Track frame offsets:
#	150
#	13233
#	28768
#	42399
#	57375
#	72378
#	86679
#	98736
#	111226
#	125346
#	139049
#	149466
#	162555
#	175440
#	188325
#	200953
#	213542
#	225512
#
# Disc length: 3185
#
# Revision: 2
# Processed by: cddbd v1.5.1PL0 Copyright (c) Steve Scherf et al.
# Submitted via: EasyCDDAExtractor 5.0.6
# Normalized: r1:DSETVAR1
#
DISCID=110c6f12
DTITLE=Various Artist - The Roots Of Blues
DYEAR=1929
DGENRE=Blues
TTITLE0=Leadbelly - Good Morning Blues
TTITLE1=Bessie Smith - Careless Love
TTITLE2=Blind Lemon Jefferson - Black Snake Moan
TTITLE3=Blind Willie McTell - Travelin' Blues
TTITLE4=Ma Rainey - Black Eye Blues
TTITLE5=Roosevelt Sykes - Ten And Four Blues
TTITLE6=Victoria Spivey - Blood Hound Blues
TTITLE7=Big Bill Broonzy - I Can't Be Satisfied
TTITLE8=Alberta Hunter - Downhearted Blues
TTITLE9=Tampa Red - Seminole Blues
TTITLE10=Robert Johnson - Stop Breakin' Down Blues
TTITLE11=Sonny Boy Williamson - Thinking My Blues Away
TTITLE12=Sweet Peas Spivey - Cold In Hand
TTITLE13=Blind Boy Fuller - Untrue Blues
TTITLE14=Bukka White - Fixin' To Die Blues
TTITLE15=Memphis Minnie - Me And My Chauffeur Blues
TTITLE16=Lonnie Johnson - Crowing Rooster Blues
TTITLE17=Josh White - Outskirts Of Town
EXTD=
EXTT0=
EXTT1=
EXTT2=
EXTT3=
EXTT4=
EXTT5=
EXTT6=
EXTT7=
EXTT8=
EXTT9=
EXTT10=
EXTT11=
EXTT12=
EXTT13=
EXTT14=
EXTT15=
EXTT16=
EXTT17=
PLAYORDER=
